<?xml version="1.0" encoding="utf-8"?>
<!-- Generator: Adobe Illustrator 25.0.1, SVG Export Plug-In . SVG Version: 6.00 Build 0)  -->
<svg version="1.1" id="レイヤー_1" xmlns="http://www.w3.org/2000/svg" xmlns:xlink="http://www.w3.org/1999/xlink" x="0px"
	 y="0px" viewBox="0 0 985.4 135.7" style="enable-background:new 0 0 985.4 135.7;" xml:space="preserve">
<style type="text/css">
	.st0{fill:url(#SVGID_1_);}
	.st1{fill:url(#SVGID_2_);}
	.st2{fill:url(#SVGID_3_);}
	.st3{fill:url(#SVGID_4_);}
	.st4{fill:url(#SVGID_5_);}
	.st5{fill:url(#SVGID_6_);}
	.st6{fill:url(#SVGID_7_);}
	.st7{fill:url(#SVGID_8_);}
	.st8{fill:url(#SVGID_9_);}
	.st9{fill:url(#SVGID_10_);}
	.st10{fill:url(#SVGID_11_);}
	.st11{fill:url(#SVGID_12_);}
	.st12{fill:url(#SVGID_13_);}
	.st13{fill:url(#SVGID_14_);}
	.st14{fill:url(#SVGID_15_);}
	.st15{fill:url(#SVGID_16_);}
</style>
<g>
	
		<linearGradient id="SVGID_1_" gradientUnits="userSpaceOnUse" x1="136.8215" y1="69.8721" x2="176.6776" y2="69.8721" gradientTransform="matrix(1 0 0 -1 0 138)">
		<stop  offset="0" style="stop-color:#FFFFFF"/>
		<stop  offset="1" style="stop-color:#000000"/>
	</linearGradient>
	<path class="st0" d="M176.6,106.3h-39.8V29.9h8.4v69.3h31.6v7.1H176.6z"/>
	
		<linearGradient id="SVGID_2_" gradientUnits="userSpaceOnUse" x1="187.4864" y1="69.3449" x2="240.0613" y2="69.3449" gradientTransform="matrix(1 0 0 -1 0 138)">
		<stop  offset="0" style="stop-color:#FFFFFF"/>
		<stop  offset="1" style="stop-color:#000000"/>
	</linearGradient>
	<path class="st1" d="M240.1,75.5c0,22.9-11.9,31.9-27.1,31.9c-14.2,0-25.6-8.4-25.6-31.4V29.9h8.4V76c0,17.4,7.6,24.2,17.7,24.2
		c11.1,0,18.4-7.4,18.4-24.2V29.9h8.4v45.6H240.1z"/>
	
		<linearGradient id="SVGID_3_" gradientUnits="userSpaceOnUse" x1="251.4746" y1="69.8721" x2="306.8245" y2="69.8721" gradientTransform="matrix(1 0 0 -1 0 138)">
		<stop  offset="0" style="stop-color:#FFFFFF"/>
		<stop  offset="1" style="stop-color:#000000"/>
	</linearGradient>
	<path class="st2" d="M306.8,106.3h-9.5l-10-17.7c-3.7-6.3-6.3-10.5-8.7-15l-8.4,15c-2.1,4.5,3.7-6.3,0,0l-9.2,17.7h-9.5l22.7-38.7
		l-21.6-37.7h9.5l10.3,18.7c2.6,4.7,4.7,8.7,6.9,12.9h0.3c2.1-4.5,4.2-8.2,6.9-12.9l10.5-18.7h9.5l-22.4,37.2L306.8,106.3z"/>
	
		<linearGradient id="SVGID_4_" gradientUnits="userSpaceOnUse" x1="318.1581" y1="69.3449" x2="370.7333" y2="69.3449" gradientTransform="matrix(1 0 0 -1 0 138)">
		<stop  offset="0" style="stop-color:#FFFFFF"/>
		<stop  offset="1" style="stop-color:#000000"/>
	</linearGradient>
	<path class="st3" d="M370.9,75.5c0,22.9-11.9,31.9-27.1,31.9c-14.2,0-25.6-8.4-25.6-31.4V29.9h8.4V76c0,17.4,7.6,24.2,17.7,24.2
		c11.1,0,18.4-7.4,18.4-24.2V29.9h8.4v45.6H370.9z"/>
	
		<linearGradient id="SVGID_5_" gradientUnits="userSpaceOnUse" x1="387.8" y1="70.2674" x2="434.365" y2="70.2674" gradientTransform="matrix(1 0 0 -1 0 138)">
		<stop  offset="0" style="stop-color:#FFFFFF"/>
		<stop  offset="1" style="stop-color:#000000"/>
	</linearGradient>
	<path class="st4" d="M417.5,69.7c5.8,1.8,9.5,7.6,11.3,15.8c2.4,11.1,4.2,17.7,5.5,20.6h-8.7c-1.3-2.1-2.9-9-5-18.4
		c-2.1-10.5-6.3-15.3-15.6-15.3h-9.2v33.7h-8.2V31c4.7-1.1,11.3-1.6,17.4-1.6c10,0,16.3,2.1,20.8,6.3c3.7,3.4,5.8,8.4,5.8,14.2
		c0,10-6.1,16.6-14.2,19.5V69.7z M405.9,66c10.5,0,17.4-6.1,17.4-15.3c0-11.3-8.4-14.8-17.9-14.8c-4.5,0-7.6,0.5-9.5,0.8V66H405.9z"
		/>
	
		<linearGradient id="SVGID_6_" gradientUnits="userSpaceOnUse" x1="438.6098" y1="70.1357" x2="494.6905" y2="70.1357" gradientTransform="matrix(1 0 0 -1 0 138)">
		<stop  offset="0" style="stop-color:#FFFFFF"/>
		<stop  offset="1" style="stop-color:#000000"/>
	</linearGradient>
	<path class="st5" d="M494.8,29.9l-24.5,43.5v32.7h-8.4V73.7l-23.2-43.8h9.5l10.5,21.3c2.9,5.8,5.3,10.5,7.6,16.1h0.3
		c2.1-5,4.7-10.3,7.6-16.3l11.1-21.3h9.5V29.9z"/>
	
		<linearGradient id="SVGID_7_" gradientUnits="userSpaceOnUse" x1="549.2432" y1="71.7171" x2="592.7324" y2="71.7171" gradientTransform="matrix(1 0 0 -1 0 138)">
		<stop  offset="0" style="stop-color:#FFFFFF"/>
		<stop  offset="1" style="stop-color:#000000"/>
	</linearGradient>
	<path class="st6" d="M587.3,37.4c-2.1-1.3-7.1-3.4-13.4-3.4c-10.5,0-14.5,6.6-14.5,12.1c0,7.4,4.5,11.3,14.8,15.6
		c12.4,5.3,18.7,11.6,18.7,22.4c0,12.1-8.7,21.3-25.3,21.3c-6.9,0-14.5-2.1-18.2-4.7l2.4-6.9c4.2,2.6,10.3,4.7,16.3,4.7
		c10.3,0,16.3-5.5,16.3-13.7c0-7.4-4.2-12.1-14-16.1c-11.6-4.2-19.2-11.1-19.2-21.6c0-11.6,9.5-20,23.5-20c7.1,0,12.7,1.8,15.6,3.7
		L587.3,37.4z"/>
	
		<linearGradient id="SVGID_8_" gradientUnits="userSpaceOnUse" x1="606.0306" y1="71.3217" x2="658.6058" y2="71.3217" gradientTransform="matrix(1 0 0 -1 0 138)">
		<stop  offset="0" style="stop-color:#FFFFFF"/>
		<stop  offset="1" style="stop-color:#000000"/>
	</linearGradient>
	<path class="st7" d="M658.7,73.5c0,22.9-11.9,31.9-27.1,31.9c-14.2,0-25.6-8.4-25.6-31.4V27.9h8.4v46.1c0,17.4,7.6,24.2,17.7,24.2
		c11.1,0,18.4-7.4,18.4-24.2V27.9h8.4v45.6H658.7z"/>
	
		<linearGradient id="SVGID_9_" gradientUnits="userSpaceOnUse" x1="675.6401" y1="72.2442" x2="719.6028" y2="72.2442" gradientTransform="matrix(1 0 0 -1 0 138)">
		<stop  offset="0" style="stop-color:#FFFFFF"/>
		<stop  offset="1" style="stop-color:#000000"/>
	</linearGradient>
	<path class="st8" d="M675.6,29c4.5-0.8,10.3-1.6,17.4-1.6c24.5,0,26.6,15.8,26.6,21.9c0,17.9-14.2,24.2-27.9,24.2
		c-2.9,0-5.5,0-7.9-0.8v31.4h-8.4V29H675.6z M684,65.9c2.1,0.5,4.7,0.8,7.9,0.8c12.1,0,19.2-6.1,19.2-16.9S703.2,34,693,34
		c-4.2,0-7.4,0.5-9.2,0.8v31.1H684z"/>
	
		<linearGradient id="SVGID_10_" gradientUnits="userSpaceOnUse" x1="732.7297" y1="72.2442" x2="776.6925" y2="72.2442" gradientTransform="matrix(1 0 0 -1 0 138)">
		<stop  offset="0" style="stop-color:#FFFFFF"/>
		<stop  offset="1" style="stop-color:#000000"/>
	</linearGradient>
	<path class="st9" d="M732.8,29c4.5-0.8,10.3-1.6,17.4-1.6c24.5,0,26.6,15.8,26.6,21.9c0,17.9-14.2,24.2-27.9,24.2
		c-2.9,0-5.5,0-7.9-0.8v31.4h-8.4V29H732.8z M740.9,65.9c2.1,0.5,4.7,0.8,7.9,0.8c12.1,0,19.2-6.1,19.2-16.9S760.2,34,749.9,34
		c-4.2,0-7.4,0.5-9.2,0.8v31.1H740.9z"/>
	
		<linearGradient id="SVGID_11_" gradientUnits="userSpaceOnUse" x1="785.4686" y1="71.9807" x2="850.8341" y2="71.9807" gradientTransform="matrix(1 0 0 -1 0 138)">
		<stop  offset="0" style="stop-color:#FFFFFF"/>
		<stop  offset="1" style="stop-color:#000000"/>
	</linearGradient>
	<path class="st10" d="M850.8,65.4c0,26.9-15,40.1-32.9,40.1c-19,0-32.4-15-32.4-38.7c0-24.8,14.2-40.1,33.2-40.1
		C838.2,26.6,850.8,42.4,850.8,65.4z M794.2,66.4c0,16.3,8.4,32.2,24,32.2c15.8,0,24-15.3,24-32.7c0-15.3-7.4-32.2-23.7-32.2
		C801.5,33.7,794.2,50.3,794.2,66.4z"/>
	
		<linearGradient id="SVGID_12_" gradientUnits="userSpaceOnUse" x1="863.4341" y1="72.2442" x2="909.9991" y2="72.2442" gradientTransform="matrix(1 0 0 -1 0 138)">
		<stop  offset="0" style="stop-color:#FFFFFF"/>
		<stop  offset="1" style="stop-color:#000000"/>
	</linearGradient>
	<path class="st11" d="M893.3,67.7c5.8,1.8,9.5,7.6,11.3,15.8c2.4,11.1,4.2,17.7,5.5,20.6h-8.7c-1.3-2.1-2.9-9-5-18.4
		c-2.1-10.5-6.3-15.3-15.6-15.3h-9.2v33.7h-8.4V29c4.7-1.1,11.3-1.6,17.4-1.6c10,0,16.3,2.1,20.8,6.3c3.7,3.4,5.8,8.4,5.8,14.2
		c0,10-6.1,16.6-14.2,19.5v0.3H893.3z M881.7,64c10.5,0,17.4-6.1,17.4-15.3c0-11.3-8.4-14.8-17.9-14.8c-4.5,0-7.6,0.5-9.5,0.8V64
		H881.7z"/>
	
		<linearGradient id="SVGID_13_" gradientUnits="userSpaceOnUse" x1="912.5095" y1="71.8489" x2="965.7509" y2="71.8489" gradientTransform="matrix(1 0 0 -1 0 138)">
		<stop  offset="0" style="stop-color:#FFFFFF"/>
		<stop  offset="1" style="stop-color:#000000"/>
	</linearGradient>
	<path class="st12" d="M965.8,35h-22.4v69.3h-8.4V35h-22.4v-7.1h53.2V35z"/>
</g>
<linearGradient id="SVGID_14_" gradientUnits="userSpaceOnUse" x1="4.6" y1="70.7" x2="124.7" y2="70.7" gradientTransform="matrix(1 0 0 -1 0 138)">
	<stop  offset="0" style="stop-color:#FFFFFF"/>
	<stop  offset="1" style="stop-color:#000000"/>
</linearGradient>
<polygon class="st13" points="64.7,7 124.7,67.3 64.7,127.6 4.6,67.3 28.7,43 45.2,101.1 106.7,82.8 99.2,56.1 74.3,63 76.5,72.8 
	68.2,75.2 52.3,19.1 "/>
<linearGradient id="SVGID_15_" gradientUnits="userSpaceOnUse" x1="68.9" y1="62.9" x2="103.5" y2="62.9" gradientTransform="matrix(1 0 0 -1 0 138)">
	<stop  offset="0" style="stop-color:#FFFFFF"/>
	<stop  offset="1" style="stop-color:#000000"/>
</linearGradient>
<polygon class="st14" points="77.8,65.5 97.5,60 103.5,81.4 72.9,90.2 68.9,77.3 80.1,74 "/>
<linearGradient id="SVGID_16_" gradientUnits="userSpaceOnUse" x1="28.2" y1="76.85" x2="68.9" y2="76.85" gradientTransform="matrix(1 0 0 -1 0 138)">
	<stop  offset="0" style="stop-color:#FFFFFF"/>
	<stop  offset="1" style="stop-color:#000000"/>
</linearGradient>
<polygon class="st15" points="28.2,31.1 50.4,24.7 68.9,91.2 47.1,97.6 "/>
</svg>
